# xmcd
#
# Track frame offsets: 
#        150
#        11775
#        21908
#        33670
#        46172
#        57730
#        66587
#        77265
#        91800
#        102295
#        117223
#
# Disc length: 1737 seconds
#
# Revision: 0
# Processed by: cddbd v1.5.2PL0 Copyright (c) Steve Scherf et al.
# Submitted via: ExactAudioCopy v1.0b1
#
DISCID=8d06c70b
DTITLE=The Barn Door Slammers - The Barn Door Slammers
DYEAR=2013
DGENRE=Swing
TTITLE0=Snatchin' And Grabbin'
TTITLE1=Long Time Coming
TTITLE2=Who Walks In
TTITLE3=Florida
TTITLE4=Roped And Tied
TTITLE5=Bogg's Boogie
TTITLE6=Jelly Roll Blues
TTITLE7=Twin Guitar Special
TTITLE8=Blue Guitar Stomp
TTITLE9=Brain Cloudy Blues
TTITLE10=Tippin' In
EXTD=
EXTT0=
EXTT1=
EXTT2=
EXTT3=
EXTT4=
EXTT5=
EXTT6=
EXTT7=
EXTT8=
EXTT9=
EXTT10=
PLAYORDER=
